<?xml version="1.0" encoding="UTF-8"?>
<svg width="200px" height="50px" viewBox="0 0 200 50" version="1.1" xmlns="http://www.w3.org/2000/svg" xmlns:xlink="http://www.w3.org/1999/xlink">
    <!-- Generator: Sketch 52.6 (67491) - http://www.bohemiancoding.com/sketch -->
    <title>logo-sdk-horizontal</title>
    <desc>Created with Sketch.</desc>
    <g id="Page-1" stroke="none" stroke-width="1" fill="none" fill-rule="evenodd">
        <g id="logo-sdk-horizontal" transform="translate(-100.000000, -78.000000)">
            <g transform="translate(100.000000, 78.230469)" id="Group">
                <g>
                    <path d="M80.315,33 L75.205,33 L66.035,9.655 L70.69,9.655 L77.76,28.555 L84.83,9.655 L89.485,9.655 L80.315,33 Z M107.02,33 L103.345,33 L103.345,30.76 C102.12,32.125 100.02,33.42 97.36,33.42 C93.72,33.42 91.935,31.53 91.935,28.065 L91.935,16.095 L95.61,16.095 L95.61,26.735 C95.61,29.36 96.94,30.165 99.005,30.165 C100.86,30.165 102.47,29.115 103.345,27.96 L103.345,16.095 L107.02,16.095 L107.02,33 Z M110.73,24.53 C110.73,19.63 114.3,15.675 119.305,15.675 C124.38,15.675 127.635,19.56 127.635,24.88 L127.635,25.755 L114.58,25.755 C114.86,28.31 116.785,30.41 119.97,30.41 C121.615,30.41 123.575,29.745 124.765,28.555 L126.445,30.97 C124.765,32.58 122.28,33.42 119.585,33.42 C114.51,33.42 110.73,29.885 110.73,24.53 Z M119.305,18.685 C116.155,18.685 114.72,21.1 114.545,23.165 L124.065,23.165 C123.995,21.17 122.63,18.685 119.305,18.685 Z M139.255,19.315 L135.825,19.315 L135.825,33 L132.15,33 L132.15,19.315 L129.35,19.315 L129.35,16.095 L132.15,16.095 L132.15,15.15 C132.15,11.37 134.39,9.305 137.505,9.305 C138.66,9.305 139.71,9.55 140.445,9.97 L139.64,12.665 C139.22,12.42 138.695,12.315 138.17,12.315 C136.735,12.315 135.825,13.26 135.825,15.15 L135.825,16.095 L139.255,16.095 L139.255,19.315 Z M149.685,33.42 C144.33,33.42 141.005,29.395 141.005,24.53 C141.005,19.7 144.33,15.675 149.685,15.675 C155.11,15.675 158.4,19.7 158.4,24.53 C158.4,29.395 155.11,33.42 149.685,33.42 Z M149.685,30.165 C152.835,30.165 154.585,27.54 154.585,24.53 C154.585,21.555 152.835,18.93 149.685,18.93 C146.57,18.93 144.82,21.555 144.82,24.53 C144.82,27.54 146.57,30.165 149.685,30.165 Z M165.785,33 L162.11,33 L162.11,16.095 L165.785,16.095 L165.785,18.58 C167.045,16.97 169.075,15.71 171.28,15.71 L171.28,19.35 C170.965,19.28 170.58,19.245 170.125,19.245 C168.585,19.245 166.52,20.295 165.785,21.485 L165.785,33 Z M198.65,33 L194.975,33 L194.975,21.975 C194.975,20.155 194.17,18.93 192.21,18.93 C190.565,18.93 189.025,20.085 188.29,21.17 L188.29,33 L184.615,33 L184.615,21.975 C184.615,20.155 183.81,18.93 181.815,18.93 C180.205,18.93 178.7,20.085 177.93,21.205 L177.93,33 L174.255,33 L174.255,16.095 L177.93,16.095 L177.93,18.405 C178.63,17.355 180.87,15.675 183.425,15.675 C185.945,15.675 187.485,16.935 188.045,18.79 C189.025,17.25 191.265,15.675 193.785,15.675 C196.9,15.675 198.65,17.355 198.65,20.785 L198.65,33 Z" id="Vueform" fill="#000000"></path>
                    <path d="M57.2511596,0.698707666 C57.1437955,0.527515485 56.9816681,0.441919396 56.7647775,0.441919396 L45.5147952,0.441919396 L28.7035184,29.7420903 L17.1242647,29.7420903 L28.4958327,49.5427088 C28.6109638,49.7255403 28.7675613,49.8169562 28.9656247,49.8169562 C29.1636883,49.8169562 29.3218265,49.7237096 29.4400394,49.5372167 L57.2511596,1.26131038 C57.3585233,1.05743408 57.3585233,0.86989984 57.2511596,0.698707666 Z" id="Path-6" fill="#17C495"></path>
                    <path d="M0.67892609,0.699455735 C0.572010277,0.871146621 0.573779815,1.06039663 0.684234705,1.26720574 L14.7660084,25.6726222 L26.297312,25.6726222 L32.4182475,15.0920049 L20.8515768,15.0920049 L18.5609265,11.0225367 L34.6766043,11.0126733 L40.7758892,0.441919396 L1.16444072,0.441919396 C0.947680112,0.441919396 0.785841903,0.527764836 0.67892609,0.699455735 Z" id="Path-7" fill="#35495E"></path>
                    <path d="M155.896,46.6565 L151.852,46.6565 L151.852,38.6525 L155.788,38.6525 C157.252,38.6525 158.068,39.5645 158.068,40.6925 C158.068,41.7005 157.42,42.3725 156.676,42.5285 C157.528,42.6605 158.224,43.5125 158.224,44.4965 C158.224,45.7325 157.396,46.6565 155.896,46.6565 Z M153.256,39.8885 L153.256,41.9645 L155.5,41.9645 C156.22,41.9645 156.628,41.5325 156.628,40.9325 C156.628,40.3325 156.22,39.8885 155.5,39.8885 L153.256,39.8885 Z M153.256,43.2005 L153.256,45.4205 L155.56,45.4205 C156.328,45.4205 156.784,45.0005 156.784,44.3045 C156.784,43.7045 156.364,43.2005 155.56,43.2005 L153.256,43.2005 Z M159.628,43.5005 L159.628,38.6525 L161.044,38.6525 L161.044,43.4525 C161.044,44.7245 161.752,45.5525 163.096,45.5525 C164.428,45.5525 165.136,44.7245 165.136,43.4525 L165.136,38.6525 L166.552,38.6525 L166.552,43.4885 C166.552,45.4805 165.412,46.8005 163.096,46.8005 C160.768,46.8005 159.628,45.4685 159.628,43.5005 Z M169.66,46.6565 L168.256,46.6565 L168.256,38.6525 L169.66,38.6525 L169.66,46.6565 Z M176.296,46.6565 L171.364,46.6565 L171.364,38.6525 L172.768,38.6525 L172.768,45.4205 L176.296,45.4205 L176.296,46.6565 Z M180.544,46.6565 L177.568,46.6565 L177.568,38.6525 L180.544,38.6525 C183.04,38.6525 184.732,40.3085 184.732,42.6605 C184.732,45.0125 183.04,46.6565 180.544,46.6565 Z M178.972,39.8885 L178.972,45.4205 L180.544,45.4205 C182.284,45.4205 183.292,44.1725 183.292,42.6605 C183.292,41.1125 182.332,39.8885 180.544,39.8885 L178.972,39.8885 Z M191.572,46.6565 L186.088,46.6565 L186.088,38.6525 L191.572,38.6525 L191.572,39.8885 L187.492,39.8885 L187.492,41.9645 L191.488,41.9645 L191.488,43.2005 L187.492,43.2005 L187.492,45.4205 L191.572,45.4205 L191.572,46.6565 Z M199.204,46.6565 L197.584,46.6565 L195.808,43.6685 L194.416,43.6685 L194.416,46.6565 L193.012,46.6565 L193.012,38.6525 L196.528,38.6525 C198.112,38.6525 199.144,39.6845 199.144,41.1605 C199.144,42.5885 198.208,43.3565 197.248,43.5125 L199.204,46.6565 Z M197.704,41.1605 C197.704,40.3925 197.128,39.8885 196.336,39.8885 L194.416,39.8885 L194.416,42.4325 L196.336,42.4325 C197.128,42.4325 197.704,41.9285 197.704,41.1605 Z" id="text-copy-2" fill="#000000" opacity="0.499162946"></path>
                </g>
            </g>
        </g>
    </g>
</svg>